<svg width="98" height="25" viewBox="0 0 98 25" fill="none" xmlns="http://www.w3.org/2000/svg">
<path d="M15.1059 12.0681C15.1163 11.2592 15.3311 10.4662 15.7304 9.76269C16.1297 9.05919 16.7004 8.46813 17.3895 8.04448C16.9517 7.41928 16.3742 6.90476 15.7028 6.5418C15.0315 6.17884 14.2847 5.97742 13.5218 5.95356C11.8945 5.78275 10.317 6.9273 9.48772 6.9273C8.64244 6.9273 7.3657 5.97051 5.99087 5.9988C5.10158 6.02753 4.23491 6.28613 3.47528 6.7494C2.71566 7.21266 2.08899 7.8648 1.65634 8.64227C-0.217828 11.8871 1.18013 16.6559 2.97542 19.2788C3.87364 20.5631 4.92341 21.9978 6.297 21.9469C7.64115 21.8911 8.14316 21.0898 9.76566 21.0898C11.3731 21.0898 11.8441 21.9469 13.2456 21.9145C14.6879 21.8911 15.5966 20.6245 16.4633 19.328C17.1087 18.4128 17.6053 17.4014 17.9348 16.3311C17.0968 15.9767 16.3817 15.3835 15.8787 14.6254C15.3756 13.8673 15.1068 12.9779 15.1059 12.0681Z" fill="white"/>
<path d="M12.4587 4.22858C13.2452 3.28451 13.6326 2.07107 13.5388 0.845955C12.3373 0.972147 11.2275 1.54637 10.4304 2.45422C10.0407 2.89772 9.74227 3.41369 9.55209 3.97261C9.36192 4.53154 9.28377 5.12246 9.32211 5.71161C9.92306 5.7178 10.5176 5.58754 11.0609 5.33066C11.6042 5.07377 12.0822 4.69695 12.4587 4.22858Z" fill="white"/>
<path d="M32.0959 18.6954H27.509L26.4074 21.948H24.4646L28.8093 9.91421H30.8278L35.1725 21.948H33.1965L32.0959 18.6954ZM27.984 17.1945H31.62L29.8276 11.9158H29.7774L27.984 17.1945Z" fill="white"/>
<path d="M44.5556 17.5617C44.5556 20.2881 43.0963 22.0398 40.8941 22.0398C40.3363 22.069 39.7815 21.9405 39.2933 21.669C38.8051 21.3975 38.4032 20.9941 38.1336 20.5048H38.092V24.8504H36.2911V13.1744H38.0343V14.6337H38.0674C38.3493 14.1468 38.758 13.7454 39.25 13.4722C39.7419 13.1991 40.2986 13.0645 40.861 13.0826C43.0877 13.0826 44.5556 14.8428 44.5556 17.5617ZM42.7045 17.5617C42.7045 15.7854 41.7865 14.6176 40.3859 14.6176C39.01 14.6176 38.0844 15.81 38.0844 17.5617C38.0844 19.3295 39.01 20.5133 40.3859 20.5133C41.7865 20.5133 42.7045 19.3541 42.7045 17.5617Z" fill="white"/>
<path d="M54.2121 17.5617C54.2121 20.2881 52.7528 22.0398 50.5507 22.0398C49.9928 22.069 49.438 21.9405 48.9498 21.669C48.4616 21.3975 48.0597 20.9941 47.7902 20.5048H47.7485V24.8504H45.9476V13.1744H47.6908V14.6337H47.7239C48.0058 14.1468 48.4145 13.7454 48.9065 13.4723C49.3984 13.1991 49.9552 13.0645 50.5175 13.0826C52.7443 13.0826 54.2121 14.8428 54.2121 17.5617ZM52.361 17.5617C52.361 15.7854 51.4431 14.6176 50.0425 14.6176C48.6665 14.6176 47.741 15.81 47.741 17.5617C47.741 19.3295 48.6665 20.5133 50.0425 20.5133C51.4431 20.5133 52.361 19.3541 52.361 17.5617Z" fill="white"/>
<path d="M60.5943 18.5951C60.7277 19.7884 61.887 20.572 63.4712 20.572C64.9891 20.572 66.0812 19.7884 66.0812 18.7124C66.0812 17.7783 65.4225 17.2191 63.863 16.8358L62.3034 16.4601C60.0937 15.9263 59.0678 14.8929 59.0678 13.216C59.0678 11.1397 60.8772 9.71355 63.4466 9.71355C65.9894 9.71355 67.7326 11.1397 67.7913 13.216H65.9733C65.8645 12.0151 64.8717 11.2902 63.421 11.2902C61.9702 11.2902 60.9775 12.0236 60.9775 13.0911C60.9775 13.9418 61.6116 14.4425 63.1626 14.8257L64.4885 15.1512C66.9575 15.7351 67.9833 16.7269 67.9833 18.4871C67.9833 20.7385 66.19 22.1485 63.3377 22.1485C60.669 22.1485 58.8672 20.7716 58.7508 18.595L60.5943 18.5951Z" fill="white"/>
<path d="M71.87 11.0981V13.1744H73.5384V14.6005H71.87V19.4373C71.87 20.1887 72.2041 20.5389 72.9375 20.5389C73.1356 20.5354 73.3333 20.5215 73.5299 20.4972V21.9148C73.2002 21.9765 72.865 22.0044 72.5296 21.9981C70.7533 21.9981 70.0606 21.3309 70.0606 19.6294V14.6005H68.7849V13.1744H70.0606V11.0981H71.87Z" fill="white"/>
<path d="M74.5047 17.5617C74.5047 14.8012 76.1305 13.0665 78.6658 13.0665C81.2096 13.0665 82.8278 14.8011 82.8278 17.5617C82.8278 20.3298 81.2181 22.0568 78.6658 22.0568C76.1144 22.0568 74.5047 20.3297 74.5047 17.5617ZM80.9928 17.5617C80.9928 15.668 80.125 14.5504 78.6658 14.5504C77.2065 14.5504 76.3397 15.6766 76.3397 17.5617C76.3397 19.4629 77.2065 20.572 78.6658 20.572C80.125 20.572 80.9928 19.4629 80.9928 17.5617Z" fill="white"/>
<path d="M84.3126 13.1744H86.0302V14.6677H86.0719C86.1881 14.2013 86.4613 13.7892 86.8457 13.5005C87.23 13.2118 87.702 13.0642 88.1823 13.0826C88.3898 13.0819 88.5968 13.1044 88.7993 13.1498V14.8343C88.5373 14.7542 88.264 14.7175 87.9901 14.7255C87.7285 14.7148 87.4677 14.761 87.2255 14.8607C86.9834 14.9604 86.7658 15.1113 86.5875 15.3031C86.4092 15.4948 86.2745 15.7229 86.1927 15.9716C86.1109 16.2204 86.0839 16.4839 86.1135 16.744V21.948H84.3126L84.3126 13.1744Z" fill="white"/>
<path d="M97.1025 19.3711C96.8602 20.9638 95.3092 22.0568 93.3247 22.0568C90.7724 22.0568 89.1882 20.3468 89.1882 17.6033C89.1882 14.8513 90.7809 13.0665 93.249 13.0665C95.6764 13.0665 97.2028 14.734 97.2028 17.3942V18.0112H91.0061V18.12C90.9775 18.4429 91.018 18.7682 91.1247 19.0743C91.2315 19.3803 91.4022 19.6602 91.6254 19.8952C91.8486 20.1303 92.1193 20.3151 92.4195 20.4375C92.7196 20.5599 93.0424 20.617 93.3663 20.6051C93.7919 20.645 94.219 20.5464 94.584 20.3241C94.9491 20.1017 95.2326 19.7675 95.3925 19.3711L97.1025 19.3711ZM91.0146 16.7525H95.401C95.4171 16.4622 95.3731 16.1717 95.2717 15.8992C95.1702 15.6267 95.0136 15.3781 94.8115 15.169C94.6094 14.9599 94.3663 14.7948 94.0974 14.6841C93.8285 14.5734 93.5397 14.5195 93.249 14.5258C92.9557 14.524 92.665 14.5804 92.3936 14.6916C92.1222 14.8028 91.8756 14.9666 91.6678 15.1736C91.4601 15.3806 91.2954 15.6268 91.1833 15.8978C91.0712 16.1688 91.0139 16.4593 91.0146 16.7525Z" fill="white"/>
<path d="M27.7583 0.856299C28.1359 0.829205 28.5148 0.886244 28.8676 1.0233C29.2205 1.16036 29.5385 1.37402 29.7988 1.64887C30.059 1.92372 30.2551 2.25291 30.3727 2.61269C30.4904 2.97247 30.5267 3.35388 30.4791 3.72941C30.4791 5.57668 29.4807 6.63853 27.7583 6.63853H25.6698V0.856299H27.7583ZM26.5678 5.8208H27.658C27.9278 5.83692 28.1978 5.79269 28.4483 5.69131C28.6989 5.58993 28.9237 5.43396 29.1063 5.23476C29.289 5.03555 29.4249 4.79813 29.5043 4.53976C29.5836 4.28139 29.6043 4.00858 29.5649 3.74119C29.6015 3.47486 29.5786 3.20375 29.4981 2.94727C29.4175 2.6908 29.2813 2.45531 29.099 2.25769C28.9168 2.06007 28.6931 1.90521 28.4439 1.80419C28.1948 1.70318 27.9264 1.65853 27.658 1.67342H26.5678V5.8208Z" fill="white"/>
<path d="M31.4936 4.45475C31.4661 4.16799 31.499 3.87866 31.5899 3.60532C31.6808 3.33197 31.8279 3.08066 32.0216 2.86748C32.2154 2.6543 32.4516 2.48398 32.715 2.36742C32.9785 2.25087 33.2633 2.19066 33.5514 2.19066C33.8395 2.19066 34.1244 2.25087 34.3878 2.36742C34.6513 2.48398 34.8874 2.6543 35.0812 2.86748C35.2749 3.08066 35.422 3.33197 35.5129 3.60532C35.6039 3.87866 35.6367 4.16799 35.6092 4.45475C35.6372 4.74181 35.6048 5.03154 35.5141 5.30532C35.4234 5.57911 35.2764 5.83089 35.0826 6.04448C34.8888 6.25808 34.6525 6.42876 34.3888 6.54557C34.1251 6.66237 33.8398 6.72271 33.5514 6.72271C33.263 6.72271 32.9778 6.66237 32.7141 6.54557C32.4504 6.42876 32.214 6.25808 32.0202 6.04448C31.8264 5.83089 31.6794 5.57911 31.5887 5.30532C31.498 5.03154 31.4656 4.74181 31.4936 4.45475ZM34.7235 4.45475C34.7235 3.50888 34.2985 2.95574 33.5528 2.95574C32.8043 2.95574 32.3832 3.50888 32.3832 4.45476C32.3832 5.40821 32.8043 5.95709 33.5528 5.95709C34.2986 5.95708 34.7235 5.40441 34.7235 4.45475Z" fill="white"/>
<path d="M41.0801 6.63844H40.1867L39.2849 3.42464H39.2167L38.3187 6.63844H37.4338L36.231 2.27483H37.1045L37.8862 5.60452H37.9505L38.8477 2.27483H39.6738L40.571 5.60452H40.6391L41.417 2.27483H42.2782L41.0801 6.63844Z" fill="white"/>
<path d="M43.2898 2.27483H44.1188V2.96803H44.1832C44.2923 2.71906 44.4765 2.51035 44.7099 2.37099C44.9433 2.23163 45.2144 2.16857 45.4853 2.1906C45.6977 2.17464 45.9109 2.20665 46.1091 2.28427C46.3074 2.36188 46.4857 2.48312 46.6307 2.63899C46.7758 2.79485 46.8839 2.98136 46.9471 3.18469C47.0103 3.38802 47.0269 3.60296 46.9957 3.81358V6.63839H46.1345V4.02984C46.1345 3.3286 45.8298 2.97986 45.1929 2.97986C45.0488 2.97315 44.9049 2.99768 44.7711 3.05178C44.6373 3.10589 44.5168 3.18828 44.4178 3.29331C44.3189 3.39834 44.2438 3.52353 44.1977 3.66029C44.1517 3.79706 44.1357 3.94216 44.151 4.08567V6.63844H43.2898L43.2898 2.27483Z" fill="white"/>
<path d="M48.3679 0.571396H49.2291V6.63843H48.3679V0.571396Z" fill="white"/>
<path d="M50.4262 4.45475C50.3988 4.16797 50.4316 3.87862 50.5226 3.60527C50.6136 3.33192 50.7606 3.08059 50.9544 2.86741C51.1482 2.65423 51.3844 2.4839 51.6478 2.36734C51.9113 2.25079 52.1962 2.19058 52.4843 2.19058C52.7724 2.19058 53.0573 2.25079 53.3208 2.36734C53.5842 2.4839 53.8204 2.65423 54.0142 2.86741C54.208 3.08059 54.355 3.33192 54.446 3.60527C54.537 3.87862 54.5698 4.16797 54.5424 4.45475C54.5703 4.74182 54.5378 5.03156 54.4471 5.30534C54.3564 5.57912 54.2094 5.83089 54.0156 6.04448C53.8217 6.25807 53.5854 6.42875 53.3217 6.54555C53.0579 6.66235 52.7727 6.72269 52.4843 6.72269C52.1959 6.72269 51.9106 6.66235 51.6469 6.54555C51.3832 6.42875 51.1468 6.25807 50.953 6.04448C50.7592 5.83089 50.6122 5.57912 50.5215 5.30534C50.4308 5.03156 50.3983 4.74182 50.4262 4.45475ZM53.6561 4.45475C53.6561 3.50888 53.2312 2.95574 52.4855 2.95574C51.7369 2.95574 51.3158 3.50888 51.3158 4.45476C51.3158 5.40821 51.7369 5.95709 52.4855 5.95709C53.2312 5.95708 53.6561 5.40441 53.6561 4.45475Z" fill="white"/>
<path d="M55.449 5.40441C55.449 4.61894 56.0338 4.16612 57.072 4.10176L58.254 4.03363V3.65698C58.254 3.19611 57.9492 2.93586 57.3606 2.93586C56.8799 2.93586 56.5467 3.11236 56.4512 3.42087H55.6174C55.7054 2.67136 56.4105 2.19062 57.4003 2.19062C58.4943 2.19062 59.1113 2.73523 59.1113 3.65698V6.63845H58.2823V6.02522H58.2142C58.0759 6.24519 57.8817 6.42451 57.6514 6.54488C57.4212 6.66525 57.1631 6.72235 56.9035 6.71035C56.7203 6.7294 56.5352 6.70986 56.36 6.65298C56.1848 6.59609 56.0235 6.50313 55.8865 6.38009C55.7495 6.25705 55.6397 6.10666 55.5644 5.93861C55.489 5.77056 55.4497 5.58858 55.449 5.40441ZM58.254 5.03155V4.66673L57.1884 4.73487C56.5874 4.77508 56.3149 4.9795 56.3149 5.36419C56.3149 5.75692 56.6556 5.98546 57.124 5.98546C57.2613 5.99936 57.4 5.9855 57.5318 5.94471C57.6636 5.90392 57.7858 5.83704 57.8912 5.74804C57.9966 5.65904 58.0831 5.54974 58.1454 5.42665C58.2077 5.30356 58.2446 5.1692 58.254 5.03155Z" fill="white"/>
<path d="M60.2432 4.45475C60.2432 3.07592 60.952 2.20244 62.0545 2.20244C62.3272 2.18988 62.5978 2.25519 62.8348 2.39076C63.0718 2.52633 63.2652 2.72654 63.3926 2.968H63.457V0.571396H64.3181V6.63843H63.4929V5.94901H63.4248C63.2876 6.18885 63.0874 6.38657 62.8458 6.52077C62.6043 6.65497 62.3306 6.72052 62.0545 6.71035C60.9444 6.7104 60.2432 5.83689 60.2432 4.45475ZM61.1328 4.45475C61.1328 5.38028 61.569 5.93721 62.2987 5.93721C63.0245 5.93721 63.4731 5.37225 63.4731 4.45854C63.4731 3.5491 63.0198 2.97608 62.2987 2.97608C61.5737 2.97608 61.1328 3.53679 61.1328 4.45475Z" fill="white"/>
<path d="M67.8811 4.45475C67.8537 4.16799 67.8865 3.87866 67.9775 3.60532C68.0684 3.33197 68.2155 3.08066 68.4092 2.86748C68.603 2.6543 68.8391 2.48398 69.1026 2.36742C69.366 2.25087 69.6509 2.19066 69.939 2.19066C70.2271 2.19066 70.5119 2.25087 70.7754 2.36742C71.0388 2.48398 71.275 2.6543 71.4688 2.86748C71.6625 3.08066 71.8096 3.33197 71.9005 3.60532C71.9914 3.87866 72.0243 4.16799 71.9968 4.45475C72.0248 4.74181 71.9924 5.03154 71.9017 5.30532C71.811 5.57911 71.664 5.83089 71.4702 6.04448C71.2764 6.25808 71.04 6.42876 70.7763 6.54557C70.5126 6.66237 70.2274 6.72271 69.939 6.72271C69.6506 6.72271 69.3653 6.66237 69.1016 6.54557C68.8379 6.42876 68.6016 6.25808 68.4078 6.04448C68.214 5.83089 68.067 5.57911 67.9763 5.30532C67.8856 5.03154 67.8532 4.74181 67.8811 4.45475ZM71.111 4.45475C71.111 3.50888 70.6861 2.95574 69.9404 2.95574C69.1918 2.95574 68.7707 3.50888 68.7707 4.45476C68.7707 5.40821 69.1919 5.95709 69.9404 5.95709C70.6861 5.95708 71.111 5.40441 71.111 4.45475Z" fill="white"/>
<path d="M73.1523 2.27483H73.9813V2.96803H74.0457C74.1548 2.71906 74.339 2.51035 74.5724 2.37099C74.8058 2.23163 75.0769 2.16857 75.3478 2.1906C75.5602 2.17464 75.7734 2.20665 75.9716 2.28427C76.1699 2.36188 76.3482 2.48312 76.4932 2.63899C76.6383 2.79485 76.7464 2.98136 76.8096 3.18469C76.8728 3.38802 76.8894 3.60296 76.8582 3.81358V6.63839H75.997V4.02984C75.997 3.3286 75.6923 2.97986 75.0554 2.97986C74.9113 2.97315 74.7674 2.99768 74.6336 3.05178C74.4998 3.10589 74.3793 3.18828 74.2803 3.29331C74.1814 3.39834 74.1063 3.52353 74.0602 3.66029C74.0142 3.79706 73.9982 3.94216 74.0135 4.08567V6.63844H73.1523V2.27483Z" fill="white"/>
<path d="M81.7243 1.18843V2.29471H82.6698V3.02009H81.7243V5.26388C81.7243 5.72096 81.9127 5.92111 82.3414 5.92111C82.4511 5.92076 82.5608 5.91413 82.6698 5.90124V6.61857C82.5151 6.64623 82.3584 6.66095 82.2013 6.66257C81.2436 6.66257 80.8622 6.32567 80.8622 5.48437V3.02005H80.1695V2.29467H80.8622V1.18843H81.7243Z" fill="white"/>
<path d="M83.8461 0.571396H84.6997V2.97607H84.7678C84.8823 2.72477 85.0714 2.51488 85.3095 2.375C85.5476 2.23512 85.8231 2.17205 86.0983 2.19439C86.3095 2.18289 86.5207 2.21816 86.7167 2.29766C86.9127 2.37717 87.0888 2.49895 87.2323 2.65433C87.3759 2.8097 87.4833 2.99485 87.5471 3.19654C87.6108 3.39824 87.6293 3.61151 87.6011 3.82116V6.63844H86.7391V4.03361C86.7391 3.33662 86.4144 2.98363 85.806 2.98363C85.658 2.97149 85.5091 2.99184 85.3698 3.04325C85.2304 3.09466 85.104 3.1759 84.9994 3.28127C84.8947 3.38664 84.8143 3.51361 84.7639 3.65329C84.7134 3.79297 84.6941 3.94198 84.7073 4.08991V6.63842H83.8461L83.8461 0.571396Z" fill="white"/>
<path d="M92.6225 5.46024C92.5055 5.85905 92.252 6.20402 91.9063 6.4348C91.5607 6.66558 91.1449 6.76748 90.7317 6.72266C90.4442 6.73025 90.1585 6.67519 89.8944 6.5613C89.6304 6.44741 89.3942 6.27741 89.2025 6.06312C89.0107 5.84882 88.8678 5.59536 88.7838 5.32032C88.6998 5.04528 88.6767 4.75525 88.716 4.47036C88.6777 4.1846 88.7012 3.89395 88.785 3.61808C88.8689 3.34222 89.011 3.08758 89.2017 2.87141C89.3925 2.65524 89.6275 2.48258 89.8908 2.36512C90.1541 2.24766 90.4396 2.18815 90.7279 2.19061C91.9421 2.19061 92.6745 3.02012 92.6745 4.39038V4.69087H89.5932V4.73913C89.5797 4.89926 89.5999 5.06045 89.6523 5.21235C89.7048 5.36425 89.7884 5.50351 89.8978 5.62121C90.0072 5.73891 90.14 5.83244 90.2877 5.89582C90.4354 5.95919 90.5947 5.991 90.7553 5.98922C90.9613 6.01395 91.17 5.97686 91.3549 5.88266C91.5398 5.78846 91.6924 5.64141 91.7935 5.46021L92.6225 5.46024ZM89.5932 4.05397H91.7972C91.8081 3.90752 91.7882 3.76041 91.7388 3.62211C91.6894 3.48381 91.6117 3.35736 91.5105 3.25091C91.4094 3.14445 91.2871 3.06033 91.1515 3.00395C91.0158 2.94758 90.87 2.92019 90.7231 2.92356C90.5742 2.92169 90.4264 2.94965 90.2884 3.0058C90.1505 3.06196 90.0251 3.14516 89.9198 3.25051C89.8145 3.35586 89.7314 3.48122 89.6753 3.61921C89.6192 3.7572 89.5913 3.90503 89.5932 4.05397Z" fill="white"/>
</svg>
