<svg width="114" height="28" viewBox="0 0 114 28" fill="none" xmlns="http://www.w3.org/2000/svg">
<path d="M57.383 15.3572C55.0844 15.3572 53.2108 17.1047 53.2108 19.5137C53.2108 21.9072 55.0844 23.6703 57.383 23.6703C59.6816 23.6703 61.5551 21.9072 61.5551 19.5137C61.5551 17.1047 59.6816 15.3572 57.383 15.3572ZM57.383 22.0333C56.1232 22.0333 55.0365 20.9944 55.0365 19.5137C55.0365 18.0175 56.1232 16.9942 57.383 16.9942C58.6427 16.9942 59.7285 18.0175 59.7285 19.5137C59.7285 20.9934 58.6427 22.0333 57.383 22.0333ZM48.2803 15.3572C45.9816 15.3572 44.1081 17.1047 44.1081 19.5137C44.1081 21.9072 45.9816 23.6703 48.2803 23.6703C50.5789 23.6703 52.4524 21.9072 52.4524 19.5137C52.4534 17.1047 50.5789 15.3572 48.2803 15.3572ZM48.2803 22.0333C47.0205 22.0333 45.9347 20.9944 45.9347 19.5137C45.9347 18.0175 47.0215 16.9942 48.2803 16.9942C49.54 16.9942 50.6258 18.0175 50.6258 19.5137C50.6268 20.9934 49.54 22.0333 48.2803 22.0333ZM37.4536 18.3957H41.6737C41.5476 19.3877 41.2172 20.1119 40.713 20.6161C40.0992 21.2299 39.1385 21.9072 37.4536 21.9072C34.8559 21.9072 32.8251 19.8128 32.8251 17.2151C32.8251 14.6174 34.8559 12.523 37.4536 12.523C38.8551 12.523 39.8783 13.0742 40.6338 13.7828L41.8779 12.5387C40.8234 11.531 39.4219 10.759 37.4536 10.759C33.8952 10.759 30.9037 13.6557 30.9037 17.2141C30.9037 20.7725 33.8952 23.6693 37.4536 23.6693C39.374 23.6693 40.8234 23.0399 41.9571 21.8583C43.122 20.6934 43.4846 19.0554 43.4846 17.7331C43.4846 17.3236 43.4533 16.9454 43.3898 16.6307H37.4536V18.3957ZM81.7337 18.0018C81.3878 17.0724 80.3323 15.3562 78.1753 15.3562C76.034 15.3562 74.2553 17.0411 74.2553 19.5128C74.2553 21.8427 76.0184 23.6693 78.3806 23.6693C80.2854 23.6693 81.3878 22.5043 81.8442 21.827L80.4271 20.882C79.955 21.5749 79.309 22.0313 78.3806 22.0313C77.4512 22.0313 76.7905 21.6062 76.3654 20.7715L81.9233 18.4729L81.7337 18.0018ZM76.0653 19.3877C76.0184 17.7819 77.3094 16.963 78.2379 16.963C78.9621 16.963 79.5758 17.3246 79.7811 17.8445L76.0653 19.3877ZM71.5462 23.4181H73.3728V11.2007H71.5462V23.4181ZM68.5547 16.2857H68.4921C68.0826 15.798 67.2959 15.3562 66.3039 15.3562C64.2252 15.3562 62.3204 17.1828 62.3204 19.5284C62.3204 21.8583 64.2252 23.6693 66.3039 23.6693C67.2959 23.6693 68.0826 23.2285 68.4921 22.7242H68.5547V23.3223C68.5547 24.9124 67.7044 25.7627 66.3342 25.7627C65.2162 25.7627 64.5232 24.9593 64.2398 24.283L62.6497 24.9447C63.1061 26.0471 64.319 27.4007 66.3342 27.4007C68.4755 27.4007 70.2865 26.1409 70.2865 23.0712V15.6084H68.5547V16.2857ZM66.4613 22.0333C65.2015 22.0333 64.147 20.9787 64.147 19.5294C64.147 18.0654 65.2015 16.9942 66.4613 16.9942C67.7054 16.9942 68.6807 18.0644 68.6807 19.5294C68.6807 20.9778 67.7054 22.0333 66.4613 22.0333ZM90.2891 11.2007H85.9196V23.4181H87.7423V18.7895H90.2882C92.3093 18.7895 94.2961 17.3265 94.2961 14.9956C94.2961 12.6647 92.3102 11.2007 90.2891 11.2007ZM90.3361 17.089H87.7423V12.9012H90.3361C91.6994 12.9012 92.4734 14.03 92.4734 14.9956C92.4734 15.9417 91.6994 17.089 90.3361 17.089ZM101.606 15.3347C100.286 15.3347 98.9188 15.9162 98.353 17.2053L99.9724 17.8816C100.318 17.2053 100.962 16.9854 101.639 16.9854C102.582 16.9854 103.541 17.5513 103.556 18.5569V18.683C103.226 18.4944 102.518 18.211 101.654 18.211C99.9098 18.211 98.1331 19.1697 98.1331 20.9621C98.1331 22.5972 99.5639 23.6497 101.167 23.6497C102.393 23.6497 103.068 23.0995 103.493 22.4555H103.555V23.3986H105.315V18.7143C105.315 16.5447 103.697 15.3347 101.606 15.3347ZM101.386 22.0303C100.788 22.0303 99.9548 21.7313 99.9548 20.9934C99.9548 20.0503 100.993 19.6887 101.888 19.6887C102.689 19.6887 103.067 19.8617 103.554 20.0972C103.413 21.2289 102.439 22.0303 101.386 22.0303ZM111.728 15.6016L109.638 20.8986H109.575L107.407 15.6016H105.442L108.696 23.0047L106.841 27.1231H108.743L113.757 15.6016H111.728ZM95.3028 23.4181H97.1264V11.2007H95.3028V23.4181Z" fill="white"/>
<path d="M37.093 3.66757H34.2509V4.37222H36.3805C36.3229 4.94492 36.0932 5.39546 35.7091 5.72286C35.324 6.05026 34.8325 6.21445 34.2509 6.21445C33.6118 6.21445 33.0713 5.99358 32.6296 5.55086C32.1957 5.10031 31.9738 4.54422 31.9738 3.87183C31.9738 3.20042 32.1957 2.64335 32.6296 2.19281C33.0713 1.75106 33.6118 1.53019 34.2509 1.53019C34.5784 1.53019 34.8901 1.58687 35.1765 1.71001C35.4628 1.83315 35.6925 2.00516 35.8723 2.22603L36.4128 1.68558C36.1675 1.40704 35.8557 1.19399 35.4716 1.0386C35.0866 0.883205 34.6849 0.808929 34.2509 0.808929C33.3987 0.808929 32.6785 1.10408 32.0891 1.6934C31.4988 2.2837 31.2047 3.01179 31.2047 3.87183C31.2047 4.73187 31.4988 5.46094 32.0891 6.05026C32.6785 6.64056 33.3987 6.93473 34.2509 6.93473C35.1432 6.93473 35.8557 6.64838 36.4049 6.06688C36.8877 5.58408 37.134 4.92831 37.134 4.10932C37.134 3.97054 37.1174 3.82297 37.093 3.66757Z" fill="white"/>
<path d="M38.215 0.939892V6.80378H41.6385V6.08349H38.9685V4.22464H41.3756V3.52H38.9685V1.66115H41.6385V0.939892H38.215Z" fill="white"/>
<path d="M46.4527 1.66115V0.939892H42.4232V1.66115H44.0612V6.80378H44.8147V1.66115H46.4527Z" fill="white"/>
<path d="M50.1225 0.939892H49.369V6.80378H50.1225V0.939892Z" fill="white"/>
<path d="M55.1019 1.66115V0.939892H51.0725V1.66115H52.7104V6.80378H53.4639V1.66115H55.1019Z" fill="white"/>
<path d="M62.7269 1.70219C62.1454 1.10408 61.433 0.808929 60.5808 0.808929C59.7295 0.808929 59.0161 1.10408 58.4346 1.6934C57.8531 2.2749 57.5667 3.00398 57.5667 3.87183C57.5667 4.74066 57.8531 5.46876 58.4346 6.05026C59.0161 6.64056 59.7295 6.93473 60.5808 6.93473C61.4242 6.93473 62.1454 6.64056 62.7269 6.05026C63.3084 5.46876 63.5948 4.74066 63.5948 3.87183C63.5948 3.01179 63.3084 2.2837 62.7269 1.70219ZM58.976 2.19281C59.4099 1.75106 59.9416 1.53019 60.5808 1.53019C61.2199 1.53019 61.7516 1.75106 62.1777 2.19281C62.6116 2.62771 62.8247 3.1926 62.8247 3.87183C62.8247 4.55204 62.6116 5.11693 62.1777 5.55086C61.7516 5.99358 61.2199 6.21445 60.5808 6.21445C59.9416 6.21445 59.4099 5.99358 58.976 5.55086C58.5499 5.10911 58.3368 4.55204 58.3368 3.87183C58.3368 3.1926 58.5499 2.63553 58.976 2.19281Z" fill="white"/>
<path d="M65.4048 3.15155L65.3725 2.0208H65.4048L68.3866 6.80378H69.1723V0.939892H68.4188V4.37222L68.452 5.50199H68.4188L65.569 0.939892H64.6523V6.80378H65.4048V3.15155Z" fill="white"/>
<path d="M11.0391 13.0824L0.633649 24.126L0.635603 24.1319C0.954208 25.332 2.04978 26.2145 3.3496 26.2145C3.86954 26.2145 4.35721 26.0738 4.77551 25.8275L4.80873 25.808L16.5209 19.0499L11.0391 13.0824Z" fill="#EB4335"/>
<path d="M21.567 11.2021L21.5572 11.1953L16.5006 8.26333L10.8038 13.3327L16.5201 19.048L21.5504 16.1463C22.4319 15.6704 23.03 14.741 23.03 13.6689C23.03 12.6046 22.4397 11.679 21.567 11.2021Z" fill="#FABC13"/>
<path d="M0.633984 3.1656C0.571436 3.39625 0.538208 3.63764 0.538208 3.88881V23.4028C0.538208 23.654 0.570123 23.8964 0.633649 24.126L11.3971 13.3648L0.633984 3.1656Z" fill="#547DBF"/>
<path d="M11.1153 13.6454L16.5013 8.26135L4.80189 1.47879C4.37676 1.22372 3.88126 1.07712 3.3496 1.07712C2.04978 1.07712 0.95323 1.96159 0.633649 3.16271L0.633984 3.1656L11.1153 13.6454Z" fill="#30A851"/>
</svg>
